<svg width="437" height="432" viewBox="0 0 437 432" fill="none" xmlns="http://www.w3.org/2000/svg">
<path fill-rule="evenodd" clip-rule="evenodd" d="M170.735 72.9902C144.435 72.9902 123.118 94.3072 123.118 120.607L190.578 120.607C175.72 129.61 165.785 145.923 165.759 164.561C148.085 164.585 132.5 173.521 123.259 187.118L123.259 120.828C96.9587 120.828 75.6417 142.145 75.6417 168.445C75.6417 191.718 92.3327 211.088 114.398 215.24C114.394 215.493 114.393 215.746 114.393 216C114.393 216.173 114.393 216.345 114.395 216.518C92.1808 220.549 75.3379 239.99 75.3379 263.368C75.3379 289.668 96.6548 310.985 122.955 310.985L122.955 244.429C132.144 258.261 147.848 267.39 165.688 267.438C165.714 285.959 175.525 302.184 190.229 311.222H123.364C123.364 337.522 144.681 358.839 170.981 358.839C194.703 358.839 214.371 341.497 217.999 318.798C218.405 318.791 218.81 318.78 219.214 318.764C222.757 341.563 242.471 359.009 266.264 359.009C292.564 359.009 313.881 337.692 313.881 311.391H243.747C258.605 302.389 268.54 286.076 268.566 267.438C288.079 267.411 305.044 256.522 313.739 240.492V311.171C340.039 311.171 361.356 289.854 361.356 263.554C361.356 239.352 343.306 219.37 319.932 216.335C319.932 216.223 319.933 216.111 319.933 215.999L319.932 215.888C343.453 212.987 361.66 192.937 361.66 168.631C361.66 142.331 340.343 121.014 314.043 121.014V192.075C305.454 175.754 288.35 164.614 268.637 164.561C268.612 146.041 258.802 129.817 244.1 120.779L313.632 120.779C313.632 94.4791 292.315 73.1622 266.015 73.1622C242.286 73.1622 222.613 90.5151 218.994 113.225C218.59 113.211 218.185 113.201 217.78 113.197C214.221 90.4168 194.515 72.9902 170.735 72.9902ZM165.831 267.366L165.831 164.633H268.494V267.366H165.831ZM217.198 267.115C245.429 267.115 268.314 244.23 268.314 216C268.314 187.769 245.429 164.884 217.198 164.884C188.968 164.884 166.083 187.769 166.083 216C166.083 244.23 188.968 267.115 217.198 267.115Z" fill="#EAFE01"/>
</svg>
