<svg width="437" height="432" viewBox="0 0 437 432" fill="none" xmlns="http://www.w3.org/2000/svg">
<path fill-rule="evenodd" clip-rule="evenodd" d="M171.277 70.3651C173.284 45.9129 193.762 26.6973 218.733 26.6973C243.758 26.6973 264.272 45.9977 266.201 70.5268C266.322 70.5292 266.442 70.532 266.561 70.5352C268.569 46.083 289.047 26.8673 314.017 26.8673C340.318 26.8673 361.635 48.1842 361.635 74.4845H284.308C301.12 81.8345 312.866 98.6117 312.866 118.135L243.333 118.135C258.036 127.173 267.846 143.398 267.871 161.918C287.584 161.972 304.687 173.112 313.277 189.432V118.371C339.577 118.371 360.894 139.688 360.894 165.988C360.894 190.294 342.687 210.344 319.166 213.245L319.166 213.357L319.166 213.471C319.166 213.544 319.166 213.618 319.165 213.691C342.539 216.725 360.59 236.707 360.59 260.909C360.59 287.209 339.273 308.526 312.973 308.526V237.85C304.278 253.879 287.313 264.769 267.8 264.795C267.773 283.432 257.839 299.744 242.981 308.747H313.115C313.115 335.047 291.798 356.364 265.498 356.364C241.705 356.364 221.99 338.918 218.448 316.119C218.044 316.135 217.639 316.147 217.233 316.153C213.605 338.852 193.937 356.194 170.215 356.194C143.915 356.194 122.598 334.877 122.598 308.577H189.462C174.758 299.54 164.947 283.314 164.922 264.794C147.081 264.745 131.378 255.616 122.189 241.785L122.189 308.34C98.6624 308.34 79.1236 291.283 75.2638 268.859L75.2638 357.515L168.658 357.515C168.658 383.816 147.341 405.133 121.041 405.133C95.077 405.133 73.9695 384.357 73.4344 358.521C47.9821 357.56 27.6466 336.626 27.6466 310.938C27.6466 284.846 48.628 263.658 74.6414 263.325L74.6328 263.16C48.5449 262.912 27.4766 241.691 27.4766 215.545C27.4766 189.302 48.7007 168.02 74.9219 167.928L74.9197 167.876C48.7779 167.691 27.6466 146.446 27.6466 120.26C27.6466 93.9602 48.9635 72.6432 75.2638 72.6432L75.2638 159.692C78.2627 136.278 98.2629 118.185 122.493 118.185L122.493 184.473C131.734 170.877 147.318 161.94 164.993 161.916C165.018 143.28 174.952 126.968 189.809 117.965L122.352 117.965C122.352 98.5907 133.919 81.9209 150.525 74.4845H75.7204C75.7204 48.1842 97.0374 26.8673 123.338 26.8673C148.246 26.8673 168.685 45.9882 170.778 70.3542C170.945 70.357 171.111 70.3606 171.277 70.3651ZM113.629 213.873C93.6997 217.49 78.0937 233.509 75.0938 253.646L75.0938 170.393C77.1206 191.585 93.0347 208.721 113.632 212.597C113.628 212.849 113.626 213.102 113.626 213.355C113.626 213.443 113.626 213.531 113.627 213.618L113.628 213.743L113.629 213.873ZM189.028 74.3145C203.669 80.7153 214.468 94.2654 217.013 110.552C217.419 110.557 217.824 110.566 218.227 110.58C220.836 94.2109 231.786 80.6249 246.583 74.3145H189.028ZM361.74 71.4944C388.04 71.4944 409.357 92.8114 409.357 119.112C409.357 145.412 388.04 166.729 361.74 166.729V71.4944ZM165.065 264.722L165.065 161.988H267.727V264.722H165.065ZM216.322 405.303C242.622 405.303 263.939 383.986 263.939 357.685L168.705 357.685C168.705 383.986 190.022 405.303 216.322 405.303ZM361.906 166.891C388.207 166.891 409.524 188.208 409.524 214.509C409.524 240.809 388.207 262.126 361.906 262.126V166.891ZM311.719 405.133C338.019 405.133 359.336 383.816 359.336 357.515L264.102 357.515C264.102 383.816 285.419 405.133 311.719 405.133ZM361.738 262.174C388.038 262.174 409.355 283.491 409.355 309.791C409.355 336.092 388.038 357.409 361.738 357.409V262.174ZM216.432 264.471C244.663 264.471 267.548 241.586 267.548 213.356C267.548 185.125 244.663 162.24 216.432 162.24C188.202 162.24 165.317 185.125 165.317 213.356C165.317 241.586 188.202 264.471 216.432 264.471Z" fill="#EAFE01"/>
</svg>
