<svg width="437" height="432" viewBox="0 0 437 432" fill="none" xmlns="http://www.w3.org/2000/svg">
<path fill-rule="evenodd" clip-rule="evenodd" d="M218.536 113.193C190.149 113.193 167.136 136.182 167.097 164.561C138.719 164.6 115.73 187.612 115.73 215.999C115.73 244.363 138.681 267.361 167.026 267.438C167.065 295.816 190.078 318.805 218.465 318.805C246.852 318.805 269.865 295.816 269.904 267.438C298.282 267.399 321.271 244.386 321.271 215.999C321.271 187.636 298.32 164.638 269.975 164.56C269.936 136.182 246.923 113.193 218.536 113.193ZM167.169 267.366L167.169 164.632H269.832V267.366H167.169ZM218.536 267.115C246.767 267.115 269.652 244.229 269.652 215.999C269.652 187.769 246.767 164.883 218.536 164.883C190.306 164.883 167.42 187.769 167.42 215.999C167.42 244.229 190.306 267.115 218.536 267.115Z" fill="#EAFE01"/>
</svg>
